<?xml version="1.0" standalone="no"?>
<!DOCTYPE svg PUBLIC "-//W3C//DTD SVG 20010904//EN"
 "http://www.w3.org/TR/2001/REC-SVG-20010904/DTD/svg10.dtd">
<svg version="1.0" xmlns="http://www.w3.org/2000/svg"
 width="596.000000pt" height="536.000000pt" viewBox="0 0 596.000000 536.000000"
 preserveAspectRatio="xMidYMid meet">

<g transform="translate(0.000000,536.000000) scale(0.100000,-0.100000)"
fill="#000000" stroke="none">
<path d="M4734 5314 c3 -18 26 -77 51 -133 25 -56 45 -107 45 -114 0 -7 4 -17
8 -22 5 -6 19 -37 32 -70 13 -33 26 -64 30 -70 4 -5 11 -21 15 -35 4 -14 18
-47 31 -75 12 -27 36 -86 54 -130 17 -44 40 -100 52 -125 11 -25 45 -108 75
-185 31 -77 65 -156 76 -175 12 -19 21 -37 21 -40 -2 -9 48 -136 98 -250 14
-30 33 -75 43 -100 10 -25 23 -58 30 -75 7 -16 36 -86 65 -155 28 -69 66 -159
83 -200 18 -41 32 -77 33 -80 1 -4 26 -63 54 -125 5 -11 18 -42 29 -70 10 -27
30 -75 44 -105 23 -51 58 -133 122 -290 15 -36 36 -85 47 -110 21 -46 27 -107
11 -119 -5 -3 -14 -17 -20 -31 -7 -14 -30 -56 -53 -95 -22 -38 -54 -97 -71
-130 -17 -33 -39 -71 -49 -85 -9 -14 -33 -54 -52 -90 -44 -83 -62 -114 -68
-120 -3 -3 -21 -34 -40 -70 -18 -36 -51 -93 -72 -128 -21 -34 -38 -64 -38 -66
0 -3 -23 -44 -51 -93 -81 -139 -81 -139 -183 -318 -53 -93 -100 -177 -106
-185 -10 -17 -53 -90 -94 -165 -16 -27 -50 -86 -76 -130 -44 -74 -135 -231
-252 -434 -27 -46 -47 -85 -45 -87 2 -2 50 76 107 173 57 98 140 241 185 318
45 77 142 244 215 370 73 127 154 266 180 310 26 44 106 181 177 305 72 124
193 333 270 465 77 132 150 258 162 281 l23 41 -82 194 c-155 366 -267 634
-370 879 -56 135 -115 274 -130 310 -15 36 -117 277 -225 535 -297 708 -355
846 -376 890 -18 38 -19 39 -15 9z"/>
<path d="M3666 5127 c-3 -13 -20 -38 -38 -56 -17 -17 -29 -31 -26 -31 3 0 -12
-19 -34 -42 -21 -23 -38 -45 -38 -50 0 -4 -14 -23 -31 -41 -38 -39 -54 -67
-39 -67 5 0 10 -4 10 -10 0 -12 -22 -9 -32 5 -5 6 -8 4 -9 -5 -1 -8 -2 -19 -4
-25 -1 -5 -3 -15 -3 -21 -1 -7 -13 -15 -27 -18 -22 -6 -30 -22 -26 -48 0 -5
-4 -8 -9 -8 -6 0 -21 -10 -33 -21 -12 -12 -16 -19 -9 -15 13 8 16 -3 6 -28 -8
-21 -22 -20 -26 2 -3 12 -7 7 -15 -15 -7 -18 -8 -33 -3 -33 5 0 10 8 13 18 4
16 4 16 12 -2 5 -11 3 -21 -5 -26 -7 -4 -9 -14 -6 -21 4 -8 0 -5 -8 5 -13 16
-19 17 -28 8 -9 -9 -9 -12 1 -12 7 0 9 -5 6 -10 -4 -6 -9 -23 -11 -38 -3 -15
-10 -29 -15 -30 -23 -9 -69 -55 -63 -64 4 -7 9 -6 14 2 5 9 9 9 14 1 4 -6 4
-12 -1 -13 -4 0 -12 -2 -18 -3 -5 -2 -15 -3 -22 -4 -7 -1 -10 -15 -8 -37 3
-27 0 -34 -10 -30 -10 3 -12 0 -8 -12 6 -15 4 -15 -10 -4 -14 12 -20 11 -39
-2 -25 -18 -17 -22 12 -6 13 7 19 6 24 -5 3 -8 0 -17 -6 -21 -7 -5 -8 -2 -3 6
6 9 2 10 -16 5 -13 -4 -28 -12 -34 -18 -7 -7 -6 -8 3 -2 19 10 43 -25 28 -41
-15 -16 -27 -8 -20 14 5 14 4 14 -4 3 -6 -8 -8 -21 -5 -30 4 -13 2 -13 -10 2
-19 23 -27 22 -22 -3 2 -13 -2 -20 -11 -20 -8 0 -14 5 -14 11 0 5 -5 7 -11 3
-8 -5 -8 -9 1 -14 17 -10 14 -19 -10 -40 -11 -10 -17 -21 -12 -24 4 -3 15 4
22 15 8 10 20 19 27 19 22 0 -8 -40 -35 -47 -18 -4 -23 -11 -19 -29 4 -25 -12
-37 -40 -28 -15 5 -16 4 -3 -5 13 -10 8 -15 -12 -12 -5 0 -9 -7 -10 -17 -1
-20 -5 -53 -7 -66 0 -5 -7 -3 -15 3 -11 9 -13 6 -10 -14 2 -20 -4 -28 -21 -35
-22 -8 -28 -31 -12 -46 11 -11 8 -36 -3 -29 -6 4 -8 10 -6 14 3 4 -1 8 -8 8
-8 0 -11 -8 -8 -21 5 -19 4 -19 -11 -7 -21 17 -23 -2 -3 -22 13 -12 12 -16 -9
-25 -17 -8 -23 -17 -19 -29 3 -10 -2 -7 -10 7 -8 14 -15 20 -16 15 0 -6 7 -20
15 -32 14 -19 13 -21 -11 -27 -19 -5 -24 -11 -19 -26 4 -14 2 -20 -9 -20 -25
0 -52 -37 -50 -67 2 -16 11 -58 22 -96 11 -38 15 -70 10 -73 -5 -3 -46 -7 -91
-9 -45 -2 -120 -7 -167 -10 -47 -4 -112 -8 -145 -10 -33 -2 -85 -6 -115 -9
-49 -5 -131 -11 -270 -21 -25 -2 -97 -6 -160 -9 -158 -8 -281 -15 -370 -22
-41 -4 -102 -8 -135 -9 -33 -2 -121 -6 -195 -10 -74 -4 -137 -7 -140 -7 -21
-1 -30 7 -44 42 -9 22 -18 40 -21 40 -2 0 -12 -15 -21 -32 -10 -18 -24 -38
-32 -44 -11 -8 -12 -13 -4 -18 7 -4 12 -12 12 -17 0 -6 -4 -7 -10 -4 -6 3 -7
-1 -4 -9 3 -9 10 -16 14 -16 5 0 2 -13 -6 -30 -9 -16 -19 -30 -23 -30 -4 0
-14 -6 -22 -12 -8 -7 -12 -12 -10 -11 11 7 29 -35 24 -54 -3 -15 0 -24 8 -25
8 0 19 -2 24 -3 6 -2 15 -3 20 -4 6 -1 4 -5 -3 -10 -9 -5 2 -7 27 -5 23 1 41
-1 41 -5 0 -9 55 -5 70 4 5 3 11 1 15 -4 4 -7 15 -7 31 -1 17 7 23 7 19 0 -3
-6 -1 -10 4 -10 6 0 11 5 11 10 0 6 11 8 28 3 41 -10 106 -10 120 0 8 6 17 5
27 -3 8 -7 15 -8 15 -3 0 5 44 10 98 10 165 1 463 11 468 15 2 3 25 3 50 2 26
-2 55 1 66 7 10 5 18 6 18 1 0 -4 9 -8 20 -8 11 0 20 4 20 8 0 8 97 0 113 -9
4 -2 7 1 7 8 0 7 3 9 6 6 4 -3 15 -2 25 4 15 7 17 6 13 -6 -4 -8 -1 -15 5 -15
6 0 11 5 11 11 0 6 9 9 20 6 11 -3 20 -2 20 2 0 3 35 6 78 5 42 -1 81 1 87 4
9 6 60 12 103 12 12 0 22 4 22 9 0 5 9 7 20 4 11 -3 20 0 20 6 0 6 11 11 24
11 13 0 40 7 61 16 21 8 51 17 67 19 16 2 36 9 44 16 8 6 14 8 14 5 0 -4 12 0
28 8 15 8 40 17 55 21 17 3 35 18 47 38 11 17 20 28 20 23 0 -5 25 17 55 49
30 33 55 62 55 66 0 9 104 127 218 246 28 30 52 57 52 60 0 5 16 24 72 84 16
16 35 41 44 54 9 14 20 22 25 20 4 -3 6 3 4 14 -2 13 3 22 16 26 11 4 17 11
14 16 -4 5 -1 9 4 9 6 0 11 7 11 15 0 8 9 20 20 27 11 7 20 16 20 20 0 5 29
47 65 93 36 47 65 89 65 94 0 5 18 28 40 51 22 23 40 51 40 61 0 11 7 19 15
19 14 0 19 12 16 33 0 4 4 7 11 7 6 0 8 3 5 6 -3 4 5 15 18 26 14 11 25 25 25
33 0 7 6 15 13 18 6 3 21 22 32 43 11 22 37 62 57 89 21 28 38 55 38 62 0 6 8
19 17 29 11 10 18 36 20 69 l2 52 -130 149 c-179 204 -165 191 -173 161z
m-211 -325 c-3 -3 -11 0 -18 7 -9 10 -8 11 6 5 10 -3 15 -9 12 -12z m-35 -72
c0 -5 -5 -10 -11 -10 -5 0 -7 5 -4 10 3 6 8 10 11 10 2 0 4 -4 4 -10z m-418
-622 c-6 -6 -15 -8 -19 -4 -4 4 -1 11 7 16 19 12 27 3 12 -12z m-59 -89 c-25
-9 -36 0 -22 17 9 11 15 12 26 2 13 -10 12 -13 -4 -19z m-53 -93 c0 -3 -4 -8
-10 -11 -5 -3 -10 -1 -10 4 0 6 5 11 10 11 6 0 10 -2 10 -4z"/>
<path d="M4595 4649 c8 -12 -26 -40 -39 -32 -5 4 -6 1 -2 -5 3 -6 2 -13 -4
-17 -5 -3 -10 3 -10 14 0 27 -23 32 -37 7 -11 -18 -12 -19 -13 -3 0 10 -5 15
-10 12 -6 -4 -8 -10 -6 -14 3 -3 -3 -7 -12 -8 -37 -3 -92 -29 -92 -43 0 -13 1
-13 11 0 9 13 10 13 6 0 -4 -18 -26 -20 -47 -6 -9 6 -7 1 4 -11 18 -22 18 -23
-7 -32 -25 -10 -43 -43 -38 -70 1 -7 -2 -10 -8 -6 -14 8 -51 -3 -51 -16 0 -5
7 -9 16 -9 9 0 12 5 8 12 -4 7 -3 8 5 4 14 -9 5 -26 -15 -26 -8 0 -13 -4 -10
-9 3 -5 -1 -12 -10 -15 -8 -3 -13 -10 -10 -14 3 -5 -8 -19 -25 -31 -17 -13
-28 -29 -25 -36 2 -7 -6 -21 -19 -31 -13 -9 -21 -23 -18 -31 3 -7 0 -13 -7
-13 -7 0 -10 -6 -7 -13 3 -8 1 -20 -4 -28 -6 -10 -9 -10 -9 -1 0 6 -4 12 -10
12 -5 0 -7 -7 -4 -15 4 -9 0 -15 -10 -15 -9 0 -15 -3 -15 -7 4 -25 -3 -45 -14
-40 -8 3 -13 -6 -14 -25 -1 -27 -26 -63 -46 -65 -17 -2 -20 -13 -4 -13 24 0
21 -17 -4 -23 -15 -4 -19 -11 -15 -25 4 -13 1 -22 -9 -26 -8 -3 -15 -13 -15
-21 0 -9 -3 -14 -7 -12 -5 2 -18 -7 -30 -20 -19 -20 -20 -23 -5 -23 14 -1 13
-4 -6 -20 -13 -10 -24 -23 -25 -27 -1 -4 -5 -7 -8 -6 -4 1 -6 -5 -5 -15 0 -10
-6 -16 -16 -16 -10 1 -18 -5 -18 -12 0 -19 -41 -106 -47 -100 -6 5 -33 -18
-33 -28 0 -3 8 -3 18 1 15 6 15 3 -3 -18 -11 -13 -32 -36 -47 -52 -32 -31 -35
-42 -10 -33 11 4 9 0 -5 -10 -13 -9 -23 -23 -23 -31 0 -8 -4 -11 -10 -8 -10 6
-14 -7 -11 -34 2 -7 -2 -10 -8 -6 -6 3 -11 -2 -11 -13 0 -11 -6 -22 -14 -25
-8 -3 -17 -19 -21 -36 -4 -17 -11 -31 -15 -31 -5 0 -14 -10 -21 -21 -9 -17 -8
-23 2 -30 11 -7 10 -9 -3 -9 -17 0 -22 -10 -19 -39 2 -7 -2 -10 -8 -6 -6 3
-11 -1 -11 -9 0 -9 -6 -16 -12 -16 -9 0 -10 -3 -2 -8 13 -9 -2 -72 -17 -72 -6
0 -8 -4 -4 -9 3 -6 1 -29 -4 -53 -12 -50 -21 -298 -12 -298 4 0 7 -8 8 -17 1
-10 3 -35 5 -56 2 -21 8 -41 13 -45 6 -4 10 -17 9 -30 -1 -13 5 -29 12 -36 7
-8 10 -16 7 -20 -3 -3 0 -13 8 -22 8 -10 13 -19 12 -21 -8 -10 -1 -23 8 -17 8
4 9 -1 4 -16 -4 -13 -3 -25 3 -29 6 -4 13 -19 16 -35 3 -16 10 -34 16 -40 5
-5 10 -23 10 -38 0 -15 5 -28 10 -28 6 0 10 -7 10 -15 0 -9 6 -18 14 -21 8 -3
12 -12 10 -19 -3 -7 0 -16 6 -20 9 -6 9 -10 -1 -16 -11 -7 -11 -9 -1 -9 7 0
10 -4 7 -10 -3 -6 1 -10 9 -10 9 0 16 -9 16 -20 0 -11 5 -20 11 -20 7 0 9 -10
5 -25 -5 -19 -2 -25 9 -25 9 0 13 -5 10 -10 -6 -10 27 -79 55 -114 8 -11 10
-16 2 -12 -6 4 -3 -8 7 -26 11 -18 21 -42 23 -53 2 -10 11 -27 21 -37 10 -10
15 -23 12 -28 -4 -6 1 -10 9 -10 17 0 17 0 20 -46 1 -18 7 -38 14 -46 6 -8 8
-19 4 -24 -4 -4 2 -2 12 6 14 11 18 11 12 2 -5 -8 -1 -22 11 -34 14 -17 15
-20 3 -16 -11 4 -16 -1 -17 -13 -1 -10 3 -18 10 -16 6 1 11 -5 12 -13 1 -8 6
-14 13 -12 16 3 15 -20 0 -37 -11 -11 -9 -11 9 -2 20 10 22 9 16 -5 -4 -11 -2
-15 4 -11 6 4 8 -3 5 -18 -2 -14 2 -31 12 -40 9 -9 16 -22 16 -30 0 -7 7 -16
16 -19 8 -3 13 -10 9 -15 -3 -5 0 -13 6 -16 5 -4 8 -13 5 -20 -3 -8 4 -24 14
-38 10 -13 22 -36 25 -50 4 -15 11 -27 17 -27 5 0 7 -4 3 -9 -3 -5 -1 -12 5
-16 6 -4 8 -11 5 -16 -4 -5 2 -12 12 -16 23 -8 37 -31 40 -62 1 -14 9 -29 18
-33 8 -5 24 -29 35 -53 11 -25 26 -44 33 -42 7 1 12 -8 11 -23 -1 -21 0 -22 9
-8 10 15 12 15 21 -4 6 -12 18 -24 26 -28 8 -4 24 -12 35 -17 16 -8 29 -6 55
7 34 18 35 17 68 -8 22 -16 49 -26 74 -28 38 -2 53 6 94 44 12 11 14 11 15 0
0 -7 5 1 11 17 17 47 25 54 117 82 70 23 80 28 56 31 -26 3 -34 12 -62 70 -18
37 -82 168 -141 292 -60 124 -147 304 -194 400 -125 256 -278 569 -379 777
-49 101 -89 187 -89 193 0 5 -16 25 -35 45 -20 19 -33 36 -30 36 3 1 8 2 13 3
18 3 33 19 29 30 -3 6 10 22 28 36 19 14 40 40 49 58 9 17 20 32 26 32 5 0 7
7 4 15 -4 9 0 15 10 15 9 0 13 6 10 14 -3 8 8 28 25 45 17 18 31 39 31 47 0 8
5 12 10 9 6 -3 11 -1 11 4 1 6 2 17 3 24 1 6 7 11 13 10 6 -1 9 6 5 19 -3 14
-1 19 6 14 7 -4 12 -1 12 8 0 8 5 18 12 22 7 5 8 3 3 -6 -5 -9 -4 -11 4 -6 9
6 9 11 0 22 -10 12 -10 15 2 12 9 -2 14 5 13 19 0 12 3 20 6 18 11 -7 51 45
45 55 -4 6 1 10 11 10 11 0 15 6 11 19 -3 14 3 23 24 31 16 7 29 17 29 22 0 5
-6 6 -12 3 -7 -4 -6 -1 3 7 17 14 33 48 30 62 -1 5 5 6 12 3 10 -4 13 0 10 13
-4 13 1 19 19 22 17 2 23 9 23 27 0 13 6 26 13 29 6 2 10 8 7 13 -4 5 -1 17 5
26 11 17 11 17 6 0 -3 -11 -2 -15 4 -12 6 3 10 13 10 21 0 8 5 12 10 9 6 -3
10 1 10 10 0 10 5 13 12 9 6 -4 8 -3 4 4 -7 12 13 62 26 62 4 0 8 7 8 17 0 16
8 26 58 77 12 13 22 28 22 35 0 6 5 11 11 11 5 0 8 4 4 10 -3 5 3 18 15 30 11
11 20 27 20 35 0 8 5 15 10 15 6 0 10 9 10 21 0 11 4 18 9 15 14 -9 32 20 25
40 -4 13 -3 15 3 6 8 -10 13 -9 24 4 11 14 11 16 0 10 -8 -6 -7 0 4 18 10 14
22 26 27 26 5 0 6 5 3 10 -3 6 -2 10 4 10 6 0 7 7 4 17 -4 10 -2 14 5 9 6 -3
13 3 17 15 4 11 22 36 41 56 32 32 39 35 79 31 34 -4 41 -3 32 7 -7 7 -17 10
-24 8 -6 -3 -20 4 -29 16 -10 11 -22 17 -27 14 -5 -3 -4 4 2 15 6 11 11 27 11
34 -1 7 -8 1 -16 -14 -17 -32 -22 -35 -20 -11 0 10 -13 24 -34 35 -26 13 -30
17 -15 18 19 1 19 1 2 11 -17 10 -37 16 -60 18 -5 1 -5 6 -1 12 5 9 -1 10 -20
5 -14 -3 -35 -2 -46 4 -11 6 -20 7 -20 1 0 -15 -75 -30 -86 -18 -1 1 2 26 7
56 6 37 5 59 -3 68 -7 9 -7 13 0 13 6 0 9 7 6 15 -4 8 -10 15 -16 15 -5 0 -6
-5 -3 -11z m10 -48 c3 -6 -4 -9 -15 -8 -11 1 -20 5 -20 9 0 11 28 10 35 -1z
m-1008 -1286 c0 -8 -4 -12 -9 -9 -4 3 -8 9 -8 15 0 5 4 9 8 9 5 0 9 -7 9 -15z
m481 -1960 c-3 -3 -9 2 -12 12 -6 14 -5 15 5 6 7 -7 10 -15 7 -18z"/>
<path d="M3220 4510 c0 -11 2 -20 5 -20 2 0 9 9 15 20 9 16 8 20 -5 20 -8 0
-15 -9 -15 -20z"/>
<path d="M3186 4484 c-17 -12 -17 -14 -4 -14 9 0 20 5 23 11 11 17 2 18 -19 3z"/>
<path d="M3140 4430 c0 -5 5 -10 11 -10 5 0 7 5 4 10 -3 6 -8 10 -11 10 -2 0
-4 -4 -4 -10z"/>
<path d="M3116 4377 c3 -8 11 -14 18 -14 8 0 12 6 9 14 -3 7 -11 13 -19 13 -7
0 -11 -6 -8 -13z"/>
<path d="M5055 4230 c-3 -5 -1 -10 4 -10 6 0 11 5 11 10 0 6 -2 10 -4 10 -3 0
-8 -4 -11 -10z"/>
<path d="M2936 4113 c-6 -14 -5 -15 5 -6 7 7 10 15 7 18 -3 3 -9 -2 -12 -12z"/>
<path d="M2777 3819 c7 -7 15 -10 18 -7 3 3 -2 9 -12 12 -14 6 -15 5 -6 -5z"/>
<path d="M5234 3805 c5 -11 10 -28 13 -37 3 -9 12 -19 20 -22 8 -3 11 -1 8 4
-3 6 -1 10 4 10 6 0 11 7 11 16 0 11 -6 14 -21 9 -12 -4 -19 -3 -16 1 3 5 -2
16 -11 24 -14 13 -15 12 -8 -5z"/>
<path d="M2711 3749 c17 -11 39 -12 39 -1 0 4 -12 8 -27 9 -19 1 -22 -1 -12
-8z"/>
<path d="M2690 3736 c0 -2 8 -10 18 -17 15 -13 16 -12 3 4 -13 16 -21 21 -21
13z"/>
<path d="M5277 3724 c7 -3 10 -11 7 -19 -8 -19 27 -90 36 -75 5 9 9 9 14 1 4
-6 11 -11 17 -11 5 0 -1 10 -13 23 -13 12 -26 21 -29 20 -4 -1 -9 7 -12 17 -4
14 0 20 11 20 13 0 12 3 -4 15 -10 8 -23 14 -29 14 -5 0 -5 -3 2 -5z"/>
<path d="M3726 3605 c-3 -8 -1 -15 4 -15 6 0 10 7 10 15 0 8 -2 15 -4 15 -2 0
-6 -7 -10 -15z"/>
<path d="M5320 3596 c0 -17 14 -29 23 -20 8 8 -3 34 -14 34 -5 0 -9 -6 -9 -14z"/>
<path d="M5360 3560 c0 -6 -5 -8 -12 -4 -7 5 -8 3 -2 -7 5 -8 9 -20 9 -28 0
-8 7 -16 15 -18 9 -3 11 -1 5 4 -12 10 -13 36 -1 44 4 4 3 10 -3 13 -6 4 -11
2 -11 -4z"/>
<path d="M5396 3455 c19 -19 23 -29 15 -39 -11 -13 6 -66 22 -66 4 0 3 8 -2
19 -6 10 -7 21 -4 25 3 3 1 6 -6 6 -8 0 -6 8 5 25 9 14 14 28 10 32 -3 3 -6 1
-6 -6 0 -7 -9 -3 -22 9 -32 29 -42 25 -12 -5z"/>
<path d="M5459 3273 c20 -68 36 -93 51 -83 13 8 12 10 -2 10 -16 0 -23 17 -19
43 0 4 -3 7 -9 7 -5 0 -10 5 -10 11 0 5 4 8 8 5 5 -3 9 1 9 9 0 8 -3 13 -5 10
-3 -3 -11 0 -18 6 -10 9 -11 5 -5 -18z"/>
<path d="M5540 3070 c0 -5 5 -10 11 -10 5 0 7 5 4 10 -3 6 -8 10 -11 10 -2 0
-4 -4 -4 -10z"/>
<path d="M5562 3019 c6 -16 12 -28 14 -26 5 5 -13 57 -20 57 -3 0 0 -14 6 -31z"/>
<path d="M5580 2971 c0 -6 4 -13 10 -16 6 -3 7 1 4 9 -7 18 -14 21 -14 7z"/>
<path d="M2676 2513 c-1 -1 -350 -3 -776 -5 -426 -2 -832 -4 -902 -6 l-127 -3
-22 -57 c-12 -31 -25 -72 -29 -89 -7 -29 -5 -33 12 -33 13 0 17 4 12 13 -4 6
2 4 13 -5 21 -20 38 -24 28 -8 -4 7 2 7 18 1 14 -6 28 -7 31 -4 3 4 6 1 6 -5
0 -7 5 -12 11 -12 5 0 7 4 4 10 -3 6 1 7 9 4 9 -3 16 -10 16 -15 0 -4 6 -7 13
-5 40 13 68 16 63 7 -4 -5 -2 -12 4 -16 5 -3 10 -2 10 4 0 13 99 12 128 -2 18
-9 25 -8 33 3 8 11 12 12 15 3 3 -7 12 -9 20 -6 8 3 22 2 32 -2 9 -5 28 -7 41
-6 16 2 21 -1 16 -10 -6 -8 -4 -10 4 -4 23 14 71 12 71 -3 0 -10 4 -12 13 -5
6 6 22 9 35 8 12 -1 22 2 22 6 0 5 11 4 24 -1 13 -5 27 -6 32 -2 4 4 4 2 1 -4
-4 -7 0 -15 9 -18 10 -4 13 -2 8 6 -5 7 1 9 20 6 14 -3 26 -2 26 3 0 4 12 4
28 0 15 -4 32 -6 39 -4 6 2 14 0 17 -6 4 -6 13 -8 21 -4 8 3 15 0 15 -7 0 -9
4 -9 13 -3 6 6 20 9 30 8 9 -2 17 2 17 8 0 7 7 3 15 -7 15 -20 15 -20 16 0 0
10 3 13 6 7 2 -7 13 -13 24 -13 10 0 19 -5 19 -12 0 -6 9 -3 20 7 18 16 25 14
21 -8 -1 -4 8 -3 19 3 13 7 20 7 20 0 0 -14 67 -12 73 3 3 9 7 9 20 -2 10 -7
17 -11 17 -7 0 3 11 1 24 -4 16 -6 28 -5 36 3 10 9 11 9 5 -2 -6 -10 -2 -11
15 -6 42 13 70 13 70 -1 0 -8 5 -14 10 -14 6 0 10 5 10 11 0 7 9 9 21 6 12 -3
22 0 26 9 3 8 9 12 14 9 4 -3 6 -12 3 -20 -4 -10 0 -13 15 -10 12 2 25 6 30
10 6 3 14 -3 20 -12 6 -10 11 -13 11 -6 0 6 9 9 20 6 11 -3 20 0 20 6 0 5 7 8
16 4 9 -3 13 -12 10 -22 -6 -15 -5 -15 6 0 7 9 19 14 26 11 7 -2 19 1 26 7 11
9 15 9 19 -1 3 -7 6 -2 7 12 1 14 4 19 7 12 3 -8 14 -2 33 18 28 30 50 39 50
20 0 -6 8 -23 17 -37 10 -14 19 -38 21 -52 2 -14 9 -29 17 -33 7 -5 12 -19 11
-33 -2 -13 2 -23 7 -22 6 1 16 -12 22 -29 5 -16 18 -42 28 -57 9 -14 17 -31
17 -37 0 -5 4 -10 9 -10 6 0 8 -9 6 -20 -3 -13 0 -18 7 -14 7 5 9 2 5 -9 -4
-11 -2 -14 8 -11 9 4 15 -7 20 -35 4 -24 12 -41 20 -41 8 0 17 -5 21 -12 5 -7
3 -8 -7 -3 -12 8 -12 6 0 -8 11 -14 11 -17 0 -17 -10 -1 -9 -4 3 -14 10 -7 19
-23 21 -34 2 -12 7 -25 12 -29 4 -5 5 -2 0 6 -5 9 -4 12 3 8 5 -4 9 -15 8 -24
-2 -10 8 -26 21 -36 12 -10 23 -27 23 -37 0 -10 4 -21 10 -25 5 -3 7 -12 4
-20 -4 -8 1 -18 10 -21 9 -3 13 -10 10 -15 -3 -5 2 -9 10 -9 9 0 13 -6 10 -14
-3 -7 2 -16 11 -20 9 -3 14 -10 10 -16 -3 -5 0 -20 7 -32 7 -13 11 -26 10 -30
-1 -5 3 -8 9 -8 5 0 7 -5 4 -11 -4 -6 3 -13 14 -16 21 -5 21 -6 4 -25 -16 -17
-16 -18 0 -12 10 3 17 1 17 -6 0 -6 4 -9 8 -6 5 3 9 -1 9 -9 0 -8 -5 -12 -10
-8 -5 3 -4 -4 2 -16 6 -11 21 -25 32 -31 13 -8 18 -17 14 -30 -4 -12 1 -22 12
-29 10 -6 14 -11 9 -11 -5 0 -3 -7 4 -15 6 -8 9 -19 5 -25 -3 -5 1 -10 9 -10
10 0 16 -9 16 -25 0 -14 5 -25 10 -25 6 0 10 -7 10 -16 0 -9 10 -25 22 -35 11
-11 18 -19 14 -19 -3 0 1 -16 9 -36 8 -20 12 -41 8 -47 -4 -6 0 -8 10 -4 11 4
14 2 10 -9 -3 -8 1 -14 10 -14 10 0 14 -8 12 -25 -1 -14 2 -25 6 -25 5 0 9
-10 9 -22 0 -19 2 -20 11 -8 9 12 10 11 6 -7 -3 -13 -1 -23 4 -23 5 0 12 -8
16 -18 3 -9 14 -28 23 -42 10 -14 16 -36 14 -50 -3 -16 -1 -20 4 -12 9 13 24
-10 37 -57 5 -17 4 -22 -5 -16 -9 5 -11 4 -6 -4 5 -8 12 -9 20 -2 8 7 17 -3
32 -35 12 -25 17 -47 13 -50 -5 -3 -3 -11 4 -18 6 -8 15 -12 20 -9 4 2 7 -6 7
-19 0 -15 -18 -42 -50 -73 -81 -79 -58 -71 53 18 121 99 140 111 187 109 60
-3 89 8 106 39 13 27 13 36 -1 92 -16 67 -207 454 -328 667 -30 52 -60 108
-150 283 -61 117 -84 160 -155 287 -13 25 -54 101 -89 169 -107 205 -178 301
-297 396 -36 29 -59 40 -83 40 -19 0 -36 -1 -37 -2z"/>
<path d="M4580 188 c-11 -18 -30 -51 -42 -74 -12 -23 -34 -50 -49 -60 -19 -13
-24 -21 -16 -26 20 -13 24 -10 57 50 18 31 44 76 57 100 29 49 22 58 -7 10z"/>
</g>
</svg>
